# xmcd CD database file
#
# Track frame offsets:
#	150
#	21665
#	35440
#	56525
#	72097
#	89620
#	103507
#	121457
#	142537
#	156050
#	178210
#	192537
#	207785
#	228882
#
# Disc length: 3168 seconds
#
# Revision: 0
# Processed by: cddbd v1.5PL3 Copyright (c) Steve Scherf et al.
# Submitted via: CDex 1.50beta8
#
DISCID=bf0c5e0e
DTITLE=THE PRIVATES - Real Time Blues
DYEAR=1900
DGENRE=Rock
TTITLE0=BLACKBOARD JUNGLE
TTITLE1=DO THE HIP SHAKE!
TTITLE2=DEAR MY FRIEND
TTITLE3=誘惑のVELVET KNIGHT
TTITLE4=TOO MUCH KALEIDOSCOPE
TTITLE5=BREAKIN'GLASS
TTITLE6=TV CHANNEL NO.5
TTITLE7=RETURN TO YOURSELF[AND MYSELF]
TTITLE8=RAT DANCE
TTITLE9=WAITIN'
TTITLE10=君が好きだから
TTITLE11=MAYBE TOMORROW
TTITLE12=BYE BYE HONEY
TTITLE13=ENDING
EXTD=
EXTT0=
EXTT1=
EXTT2=
EXTT3=
EXTT4=
EXTT5=
EXTT6=
EXTT7=
EXTT8=
EXTT9=
EXTT10=
EXTT11=
EXTT12=
EXTT13=
PLAYORDER=
